<svg id="icon" xmlns="http://www.w3.org/2000/svg" viewBox="0 0 512 512"><rect x="94.846" y="23.57" width="322.308" height="464.86" style="fill:#b76565"/><rect x="117.726" y="46.45" width="276.548" height="419.1" style="fill:#f2aa91"/><rect x="117.726" y="211.867" width="276.548" height="21.36" style="fill:#ce7f6f"/><rect x="145.425" y="264.91" width="221.149" height="173.264" style="fill:#fff"/><rect x="145.425" y="75.962" width="221.149" height="157.264" style="fill:#fff"/><rect x="145.425" y="211.867" width="221.149" height="21.36" style="fill:#e6e6e6"/><path d="M295.9,225.35a34.535,34.535,0,0,0-29.719-16.944H245.824a34.534,34.534,0,0,0-29.719,16.944l-6.284,10.5h92.613Z" style="fill:#b76565"/><path d="M417.154,17.75H94.846a5.82,5.82,0,0,0-5.82,5.82V488.43a5.82,5.82,0,0,0,5.82,5.82H417.154a5.82,5.82,0,0,0,5.82-5.82V23.57A5.82,5.82,0,0,0,417.154,17.75Zm-5.82,464.86H100.666V29.39H411.334Z" style="fill:#333"/><path d="M117.726,471.371H394.274a5.82,5.82,0,0,0,5.82-5.82V46.45a5.82,5.82,0,0,0-5.82-5.82H117.726a5.821,5.821,0,0,0-5.821,5.82v419.1A5.821,5.821,0,0,0,117.726,471.371Zm5.82-419.1H388.453V227.407H303.875c-7.33-14.73-20.889-24.863-37.7-24.821H245.824c-16.8-.044-30.378,10.1-37.7,24.822H123.546ZM290.325,227.407h-68.65a28.839,28.839,0,0,1,24.149-13.181C262.913,214.681,279.189,210.634,290.325,227.407Zm-166.779,11.64H388.453V459.731H123.546Z" style="fill:#333"/><path d="M366.575,355.667a5.82,5.82,0,0,0-5.82,5.82v70.866H151.245V270.73h209.51V310.3c.176,7.679,11.461,7.665,11.64,0V264.91a5.82,5.82,0,0,0-5.82-5.82H145.425a5.82,5.82,0,0,0-5.82,5.82V438.173a5.821,5.821,0,0,0,5.82,5.821h221.15a5.821,5.821,0,0,0,5.82-5.821V361.487A5.82,5.82,0,0,0,366.575,355.667Z" style="fill:#333"/><path d="M374.63,330.1c-5.783-3.835-12.254,4.021-7.347,8.948C373.506,344.737,381.438,335.1,374.63,330.1Z" style="fill:#333"/><path d="M145.425,236.137a5.82,5.82,0,0,0,5.82-5.82V81.783h209.51V230.317a5.82,5.82,0,0,0,11.64,0V75.962a5.82,5.82,0,0,0-5.82-5.82H145.425a5.82,5.82,0,0,0-5.82,5.82V230.317A5.82,5.82,0,0,0,145.425,236.137Z" style="fill:#333"/></svg>