<svg xmlns="http://www.w3.org/2000/svg" xmlns:xlink="http://www.w3.org/1999/xlink" width="500" zoomAndPan="magnify" viewBox="0 0 375 374.999991" height="500" preserveAspectRatio="xMidYMid meet" version="1.0"><path fill="#f3c68b" d="M 274.671875 73.027344 C 274.367188 56.988281 273.882812 45.632812 273.21875 43.929688 C 270.644531 37.324219 197.445312 39.351562 194.90625 43.929688 C 194.246094 45.125 193.777344 56.609375 193.484375 73.027344 Z M 274.671875 73.027344 " fill-opacity="1" fill-rule="nonzero"/><path fill="#f3c68b" d="M 282.230469 57.582031 C 290.777344 64.292969 285.160156 199.1875 283.921875 213.269531 C 282.164062 233.066406 274.261719 249.035156 254.960938 249.082031 C 186.808594 249.242188 29.125 233.203125 23.253906 227.960938 C 15.828125 221.328125 14.457031 62.878906 22.851562 58.195312 C 31.246094 53.507812 273.679688 50.871094 282.230469 57.582031 Z M 282.230469 57.582031 " fill-opacity="1" fill-rule="nonzero"/><path fill="#f5ddb1" d="M 267.832031 76.835938 C 276.363281 83.566406 275.832031 238.058594 267.832031 246.605469 C 259.828125 255.148438 15.859375 253.253906 8.453125 246.605469 C 1.046875 239.953125 0.046875 81.503906 8.453125 76.835938 C 16.859375 72.171875 259.296875 70.105469 267.832031 76.835938 Z M 267.832031 76.835938 " fill-opacity="1" fill-rule="nonzero"/><path fill="#f5ddb1" d="M 263.363281 83.726562 C 263.054688 67.683594 262.574219 56.328125 261.90625 54.625 C 259.332031 48.019531 186.132812 50.046875 183.59375 54.625 C 182.933594 55.820312 182.464844 67.304688 182.171875 83.726562 Z M 263.363281 83.726562 " fill-opacity="1" fill-rule="nonzero"/><path fill="#85c0c8" d="M 331.941406 216.316406 C 332.679688 212.035156 333.066406 207.757812 333.066406 203.5625 C 333.066406 159.496094 289.28125 139.773438 254.664062 147.742188 C 227.851562 153.917969 210.234375 173.863281 210.234375 173.863281 C 210.234375 173.863281 196.535156 167.140625 180.628906 170.882812 C 149.285156 178.257812 143.046875 202.753906 143.046875 202.753906 C 143.046875 202.753906 135.136719 201.324219 127.785156 203.304688 C 105.40625 209.335938 85.171875 224.59375 90.984375 252.980469 C 96.160156 278.273438 116.367188 283.785156 138.761719 289.746094 C 167.808594 297.492188 311.066406 299.410156 329.859375 294.539062 C 357.242188 287.445312 375.050781 269.75 370.660156 243.945312 C 366.933594 222.058594 349.878906 214.308594 331.941406 216.316406 Z M 331.941406 216.316406 " fill-opacity="1" fill-rule="nonzero"/><path fill="#d6eefd" d="M 322.902344 220.832031 C 323.640625 216.550781 324.027344 212.273438 324.027344 208.078125 C 324.027344 164.011719 279.925781 143.015625 245.621094 152.257812 C 227.867188 157.039062 213.421875 167.902344 203.667969 182.15625 C 194.867188 174.996094 182.359375 172.496094 171.589844 175.398438 C 155.804688 179.648438 144.75 192.585938 141.632812 208.058594 C 134.132812 205.980469 126.097656 205.839844 118.742188 207.820312 C 96.367188 213.851562 76.128906 229.109375 81.941406 257.496094 C 87.125 282.789062 107.324219 288.300781 129.71875 294.265625 C 158.769531 302.007812 308.210938 299.136719 327.007812 294.265625 C 354.390625 287.171875 366.011719 274.265625 361.621094 248.460938 C 357.898438 226.578125 340.84375 218.824219 322.902344 220.832031 Z M 322.902344 220.832031 " fill-opacity="1" fill-rule="nonzero"/></svg>